<mxfile host="app.diagrams.net" modified="2020-11-29T16:16:16.234Z" agent="5.0 (Windows)" etag="oSil4U-M26zejlo8zo_n" version="13.10.4" type="github">
  <diagram id="Xdkkkd2Dyh8ycstT_zgM" name="Page-1">
    <mxGraphModel dx="950" dy="458" grid="1" gridSize="10" guides="1" tooltips="1" connect="1" arrows="1" fold="1" page="1" pageScale="1" pageWidth="827" pageHeight="1169" math="0" shadow="0">
      <root>
        <mxCell id="0" />
        <mxCell id="1" parent="0" />
        <mxCell id="eMjA9M2efQZ5CfNpLp78-1" value="" style="shape=hexagon;perimeter=hexagonPerimeter2;whiteSpace=wrap;html=1;fixedSize=1;" parent="1" vertex="1">
          <mxGeometry x="210" y="80" width="120" height="87" as="geometry" />
        </mxCell>
        <mxCell id="eMjA9M2efQZ5CfNpLp78-2" value="&lt;div&gt;&lt;font style=&quot;font-size: 14px&quot; face=&quot;Times New Roman&quot;&gt;Direttore&lt;/font&gt;&lt;/div&gt;&lt;div&gt;&lt;font style=&quot;font-size: 14px&quot; face=&quot;Times New Roman&quot;&gt;Generale&lt;br&gt;&lt;/font&gt;&lt;/div&gt;" style="shape=umlActor;verticalLabelPosition=bottom;verticalAlign=top;html=1;outlineConnect=0;" parent="1" vertex="1">
          <mxGeometry x="40" y="60" width="30" height="60" as="geometry" />
        </mxCell>
        <mxCell id="eMjA9M2efQZ5CfNpLp78-3" value="&lt;div&gt;&lt;font style=&quot;font-size: 14px&quot; face=&quot;Times New Roman&quot;&gt;Responsabile&lt;/font&gt;&lt;/div&gt;&lt;div&gt;&lt;font style=&quot;font-size: 14px&quot; face=&quot;Times New Roman&quot;&gt;Vendite&lt;br&gt;&lt;/font&gt;&lt;/div&gt;" style="shape=umlActor;verticalLabelPosition=bottom;verticalAlign=top;html=1;outlineConnect=0;" parent="1" vertex="1">
          <mxGeometry x="43" y="174.25" width="30" height="60" as="geometry" />
        </mxCell>
        <mxCell id="eMjA9M2efQZ5CfNpLp78-4" value="&lt;font style=&quot;font-size: 14px&quot; face=&quot;Times New Roman&quot;&gt;Magazziniere&lt;/font&gt;" style="shape=umlActor;verticalLabelPosition=bottom;verticalAlign=top;html=1;outlineConnect=0;" parent="1" vertex="1">
          <mxGeometry x="43" y="284.25" width="30" height="60" as="geometry" />
        </mxCell>
        <mxCell id="eMjA9M2efQZ5CfNpLp78-5" value="&lt;font style=&quot;font-size: 14px&quot; face=&quot;Times New Roman&quot;&gt;Commesso&lt;/font&gt;" style="shape=umlActor;verticalLabelPosition=bottom;verticalAlign=top;html=1;outlineConnect=0;" parent="1" vertex="1">
          <mxGeometry x="43" y="380" width="30" height="60" as="geometry" />
        </mxCell>
        <mxCell id="eMjA9M2efQZ5CfNpLp78-6" value="" style="rounded=0;whiteSpace=wrap;html=1;" parent="1" vertex="1">
          <mxGeometry x="190" y="120" width="450" height="283" as="geometry" />
        </mxCell>
        <mxCell id="eMjA9M2efQZ5CfNpLp78-7" value="&lt;div&gt;&lt;br&gt;&lt;/div&gt;&lt;div&gt;&lt;br&gt;&lt;/div&gt;&lt;div&gt;&lt;br&gt;&lt;/div&gt;&lt;div&gt;&lt;br&gt;&lt;/div&gt;&lt;div&gt;&lt;br&gt;&lt;/div&gt;&lt;div&gt;&lt;br&gt;&lt;/div&gt;" style="ellipse;whiteSpace=wrap;html=1;" parent="1" vertex="1">
          <mxGeometry x="230" y="130" width="80" height="60" as="geometry" />
        </mxCell>
        <mxCell id="eMjA9M2efQZ5CfNpLp78-8" value="&lt;div&gt;&lt;font face=&quot;Times New Roman&quot;&gt;&lt;span style=&quot;font-size: 14px&quot;&gt;&lt;b&gt;Login&lt;/b&gt;&lt;/span&gt;&lt;/font&gt;&lt;/div&gt;" style="text;html=1;strokeColor=none;fillColor=none;align=center;verticalAlign=middle;whiteSpace=wrap;rounded=0;" parent="1" vertex="1">
          <mxGeometry x="205" y="194.25" width="130" height="20" as="geometry" />
        </mxCell>
        <mxCell id="eMjA9M2efQZ5CfNpLp78-9" value="&lt;div&gt;&lt;br&gt;&lt;/div&gt;&lt;div&gt;&lt;br&gt;&lt;/div&gt;&lt;div&gt;&lt;br&gt;&lt;/div&gt;&lt;div&gt;&lt;br&gt;&lt;/div&gt;&lt;div&gt;&lt;br&gt;&lt;/div&gt;&lt;div&gt;&lt;br&gt;&lt;/div&gt;" style="ellipse;whiteSpace=wrap;html=1;" parent="1" vertex="1">
          <mxGeometry x="230" y="290" width="80" height="60" as="geometry" />
        </mxCell>
        <mxCell id="eMjA9M2efQZ5CfNpLp78-10" value="&lt;div&gt;&lt;font face=&quot;Times New Roman&quot;&gt;&lt;span style=&quot;font-size: 14px&quot;&gt;&lt;b&gt;Logout&lt;/b&gt;&lt;/span&gt;&lt;/font&gt;&lt;/div&gt;" style="text;html=1;strokeColor=none;fillColor=none;align=center;verticalAlign=middle;whiteSpace=wrap;rounded=0;" parent="1" vertex="1">
          <mxGeometry x="197.5" y="350" width="145" height="20" as="geometry" />
        </mxCell>
        <mxCell id="eMjA9M2efQZ5CfNpLp78-11" value="" style="shape=partialRectangle;whiteSpace=wrap;html=1;bottom=1;right=1;left=1;top=0;fillColor=none;routingCenterX=-0.5;rotation=-90;" parent="1" vertex="1">
          <mxGeometry x="-30" y="230" width="320" height="60" as="geometry" />
        </mxCell>
        <mxCell id="eMjA9M2efQZ5CfNpLp78-12" value="" style="endArrow=none;html=1;" parent="1" edge="1">
          <mxGeometry width="50" height="50" relative="1" as="geometry">
            <mxPoint x="100" y="215" as="sourcePoint" />
            <mxPoint x="160" y="215" as="targetPoint" />
          </mxGeometry>
        </mxCell>
        <mxCell id="eMjA9M2efQZ5CfNpLp78-13" value="" style="endArrow=none;html=1;" parent="1" edge="1">
          <mxGeometry width="50" height="50" relative="1" as="geometry">
            <mxPoint x="100" y="321" as="sourcePoint" />
            <mxPoint x="160" y="321.31999999999994" as="targetPoint" />
          </mxGeometry>
        </mxCell>
        <mxCell id="eMjA9M2efQZ5CfNpLp78-14" value="&lt;div align=&quot;center&quot;&gt;&lt;font face=&quot;Times New Roman&quot;&gt;&lt;b&gt;Gestione&lt;/b&gt;&lt;/font&gt;&lt;/div&gt;&lt;div align=&quot;center&quot;&gt;&lt;font face=&quot;Times New Roman&quot;&gt;&lt;b&gt;Autenticazione&lt;/b&gt;&lt;/font&gt;&lt;/div&gt;" style="text;html=1;strokeColor=none;fillColor=none;align=center;verticalAlign=middle;whiteSpace=wrap;rounded=0;" parent="1" vertex="1">
          <mxGeometry x="250" y="90" width="40" height="20" as="geometry" />
        </mxCell>
        <mxCell id="eMjA9M2efQZ5CfNpLp78-15" value="" style="endArrow=none;html=1;entryX=0;entryY=0.5;entryDx=0;entryDy=0;exitX=0.512;exitY=0.995;exitDx=0;exitDy=0;exitPerimeter=0;" parent="1" source="eMjA9M2efQZ5CfNpLp78-11" target="eMjA9M2efQZ5CfNpLp78-7" edge="1">
          <mxGeometry width="50" height="50" relative="1" as="geometry">
            <mxPoint x="240" y="310" as="sourcePoint" />
            <mxPoint x="215" y="256.25" as="targetPoint" />
          </mxGeometry>
        </mxCell>
        <mxCell id="eMjA9M2efQZ5CfNpLp78-16" value="" style="endArrow=none;html=1;exitX=0.5;exitY=1;exitDx=0;exitDy=0;entryX=0;entryY=0.5;entryDx=0;entryDy=0;" parent="1" source="eMjA9M2efQZ5CfNpLp78-11" target="eMjA9M2efQZ5CfNpLp78-9" edge="1">
          <mxGeometry width="50" height="50" relative="1" as="geometry">
            <mxPoint x="300" y="290" as="sourcePoint" />
            <mxPoint x="350" y="240" as="targetPoint" />
          </mxGeometry>
        </mxCell>
        <mxCell id="eMjA9M2efQZ5CfNpLp78-18" value="" style="endArrow=classic;html=1;dashed=1;entryX=1;entryY=0.5;entryDx=0;entryDy=0;exitX=0;exitY=0.5;exitDx=0;exitDy=0;" parent="1" source="eMjA9M2efQZ5CfNpLp78-20" target="eMjA9M2efQZ5CfNpLp78-7" edge="1">
          <mxGeometry width="50" height="50" relative="1" as="geometry">
            <mxPoint x="490" y="180" as="sourcePoint" />
            <mxPoint x="370" y="150" as="targetPoint" />
          </mxGeometry>
        </mxCell>
        <mxCell id="eMjA9M2efQZ5CfNpLp78-19" value="&lt;font face=&quot;Times New Roman&quot;&gt;&amp;nbsp;&amp;lt;&amp;lt;Extends&amp;gt;&amp;gt;&amp;nbsp;&lt;/font&gt;" style="edgeLabel;html=1;align=center;verticalAlign=middle;resizable=0;points=[];" parent="eMjA9M2efQZ5CfNpLp78-18" vertex="1" connectable="0">
          <mxGeometry x="-0.0125" y="1" relative="1" as="geometry">
            <mxPoint y="-3" as="offset" />
          </mxGeometry>
        </mxCell>
        <mxCell id="eMjA9M2efQZ5CfNpLp78-20" value="&lt;div&gt;&lt;br&gt;&lt;/div&gt;&lt;div&gt;&lt;br&gt;&lt;/div&gt;&lt;div&gt;&lt;br&gt;&lt;/div&gt;&lt;div&gt;&lt;br&gt;&lt;/div&gt;&lt;div&gt;&lt;br&gt;&lt;/div&gt;&lt;div&gt;&lt;br&gt;&lt;/div&gt;" style="ellipse;whiteSpace=wrap;html=1;" parent="1" vertex="1">
          <mxGeometry x="405" y="130" width="80" height="60" as="geometry" />
        </mxCell>
        <mxCell id="eMjA9M2efQZ5CfNpLp78-21" value="&lt;div&gt;&lt;font face=&quot;Times New Roman&quot;&gt;&lt;b&gt;Dati Non presenti&lt;/b&gt;&lt;/font&gt;&lt;/div&gt;&lt;div&gt;&lt;font face=&quot;Times New Roman&quot;&gt;&lt;b&gt;nel Database&lt;/b&gt;&lt;/font&gt;&lt;br&gt;&lt;/div&gt;" style="text;html=1;strokeColor=none;fillColor=none;align=center;verticalAlign=middle;whiteSpace=wrap;rounded=0;" parent="1" vertex="1">
          <mxGeometry x="380" y="194.25" width="130" height="20" as="geometry" />
        </mxCell>
        <mxCell id="iDaQT0xO39RJVD-2PEQ2-3" value="&lt;div&gt;&lt;br&gt;&lt;/div&gt;&lt;div&gt;&lt;br&gt;&lt;/div&gt;&lt;div&gt;&lt;br&gt;&lt;/div&gt;&lt;div&gt;&lt;br&gt;&lt;/div&gt;&lt;div&gt;&lt;br&gt;&lt;/div&gt;&lt;div&gt;&lt;br&gt;&lt;/div&gt;" style="ellipse;whiteSpace=wrap;html=1;" vertex="1" parent="1">
          <mxGeometry x="530" y="246.5" width="80" height="60" as="geometry" />
        </mxCell>
        <mxCell id="iDaQT0xO39RJVD-2PEQ2-4" value="&lt;div&gt;&lt;font face=&quot;Times New Roman&quot;&gt;&lt;b&gt;Dati Non presenti&lt;/b&gt;&lt;/font&gt;&lt;/div&gt;&lt;div&gt;&lt;font face=&quot;Times New Roman&quot;&gt;&lt;b&gt;nel Database&lt;/b&gt;&lt;/font&gt;&lt;br&gt;&lt;/div&gt;" style="text;html=1;strokeColor=none;fillColor=none;align=center;verticalAlign=middle;whiteSpace=wrap;rounded=0;" vertex="1" parent="1">
          <mxGeometry x="510" y="310" width="130" height="20" as="geometry" />
        </mxCell>
        <mxCell id="iDaQT0xO39RJVD-2PEQ2-7" value="" style="endArrow=classic;html=1;dashed=1;entryX=0.5;entryY=0;entryDx=0;entryDy=0;exitX=1;exitY=0.5;exitDx=0;exitDy=0;" edge="1" parent="1" source="eMjA9M2efQZ5CfNpLp78-20" target="iDaQT0xO39RJVD-2PEQ2-3">
          <mxGeometry width="50" height="50" relative="1" as="geometry">
            <mxPoint x="594.36" y="189.43" as="sourcePoint" />
            <mxPoint x="499.36" y="189.43" as="targetPoint" />
          </mxGeometry>
        </mxCell>
        <mxCell id="iDaQT0xO39RJVD-2PEQ2-8" value="&amp;nbsp;&amp;lt;&amp;lt;&lt;font face=&quot;Times New Roman&quot;&gt;includes&lt;/font&gt;&amp;gt;&amp;gt;&amp;nbsp;" style="edgeLabel;html=1;align=center;verticalAlign=middle;resizable=0;points=[];" vertex="1" connectable="0" parent="iDaQT0xO39RJVD-2PEQ2-7">
          <mxGeometry x="-0.0125" y="1" relative="1" as="geometry">
            <mxPoint y="-3" as="offset" />
          </mxGeometry>
        </mxCell>
      </root>
    </mxGraphModel>
  </diagram>
</mxfile>
